<?xml version="1.0" encoding="UTF-8"?>
<svg xmlns="http://www.w3.org/2000/svg" xmlns:xlink="http://www.w3.org/1999/xlink" id="Layer_1" data-name="Layer 1" viewBox="0 0 269 91">
  <defs>
    <style>
      .cls-1 {
        fill: #fff;
      }

      .cls-2 {
        stroke: #fff;
        stroke-miterlimit: 10;
      }

      .cls-3 {
        fill: url(#linear-gradient);
      }

      .cls-4 {
        fill: #9bcb1e;
      }

      .cls-5 {
        fill: #fab13e;
      }
    </style>
    <linearGradient id="linear-gradient" x1="2.14" y1="47.84" x2="62.23" y2="47.84" gradientUnits="userSpaceOnUse">
      <stop offset="0" stop-color="#8bbf00"></stop>
      <stop offset="1" stop-color="#a7d333"></stop>
    </linearGradient>
  </defs>
  <path d="M47.87,24.65c-.05,.89-.3,1.71-1.35,1.78-1,.07-1.3-.71-1.5-1.51-.12-.49,.2-1.06-.3-1.47,.08-1.56-.1-3.07-.76-4.51,.15-.36-.02-.68-.14-1.01-.8-2.1-2.05-3.89-3.75-5.35-4.24-3.64-9.07-4.64-14.28-2.65-5.11,1.95-7.97,5.87-8.82,11.24-.18,1.3-.2,2.59,0,3.89-.19,.69,.02,1.39,.02,2.08,0,.9-.35,1.57-1.29,1.65-.97,.09-1.36-.58-1.58-1.41-.15-.58,.16-1.23-.31-1.75,.1-.71-.05-1.38-.31-2.03,.69-1.23,.46-2.64,.75-3.95,1.62-7.36,7.35-12.67,14.69-13.51,7.07-.81,13.91,3.07,17.13,9.66,.8,1.62,.94,3.46,1.81,5.05-.31,.7-.01,1.37,.11,2.04-.55,.55-.06,1.16-.09,1.74Z"></path>
  <path d="M134.92,71.88c-.3,.72-.45,1.05-.57,1.4q-1.14,3.19-4.44,3.19h-1.13c-3.5,0-3.48,0-2.88-3.39,2.25-12.74,4.49-25.48,6.68-38.22,.19-1.11,.59-1.4,1.65-1.37,2.37,.07,4.75,.05,7.12,0,.92-.02,1.31,.05,1.09,1.21-.82,4.16-1.49,8.35-2.22,12.52-.06,.36-.23,.71,.06,1.25,1.83-1.95,3.99-3.25,6.6-3.78,4.84-.98,9.45,.66,11.73,4.22,1.01,1.57,1.55,3.32,1.66,5.16,.37,6.44-.74,12.55-4.64,17.85-3.59,4.88-10.5,6.61-16.13,4.29-1.99-.82-3.33-2.28-4.56-4.33Zm2.48-8.35c0,2.43,.24,4.47,2.41,5.54,2.74,1.36,6.75,.23,8.25-2.44,1.89-3.36,2.53-7.06,2.31-10.88-.1-1.71-1.07-2.91-2.75-3.41-3.13-.93-6.04,.18-7.88,2.91-1.75,2.61-2.09,5.58-2.34,8.28Z"></path>
  <path d="M218.76,67.27c5.45,0,10.65,.07,15.85-.04,1.56-.03,1.71,.51,1.41,1.77-.36,1.55-.75,3.13-.85,4.71-.11,1.7-1.09,2.13-2.49,2.17-1.44,.04-2.88,0-4.32,0-7.92,0-15.84,0-23.75,0-.6,0-1.2,0-1.82,0,.24-5.08,2.71-8.88,6.23-12.13,3.22-2.97,6.91-5.32,10.54-7.74,2.71-1.81,5.45-3.59,7.72-5.97,1.12-1.18,2.03-2.48,2.38-4.09,.53-2.44-.8-4.41-3.25-4.86-4.62-.85-8.12,1.46-8.99,6.06-.23,1.24-.61,1.73-1.97,1.64-2.15-.15-4.32-.11-6.47-.01-1.12,.05-1.25-.35-1.14-1.32,.81-7.14,6.15-12.59,13.34-13.6,2.98-.42,5.94-.58,8.92-.03,10.35,1.91,11.39,10.64,8.24,16.85-1.96,3.87-5.22,6.52-8.7,8.92-2.87,1.97-5.82,3.82-8.72,5.74-.73,.48-1.46,.97-2.14,1.93Z"></path>
  <path d="M123.16,45.21c-1.35,7.41-2.66,14.58-3.96,21.76-.07,.37-.14,.74-.18,1.11-.17,1.88,.18,2.33,2.1,2.3,1.08-.02,1.3,.34,1.09,1.3-.26,1.2-.48,2.42-.65,3.64-.09,.63-.42,.94-.98,1.13-2.03,.67-4.09,.95-6.21,.61-2.55-.42-4.15-1.88-4.64-4.5-.79,.02-1.03,.65-1.43,1.01-3.82,3.53-8.27,4.44-13.18,3-4.14-1.21-6.33-4.31-6.73-8.39-.66-6.69,.5-13.08,4.59-18.63,3.3-4.48,9.7-6.26,14.96-4.39,1.79,.63,3.23,1.69,4.26,3.27,.44,.67,.88,.68,1.11-.02,1.07-3.33,3.65-3.5,6.51-3.22,1.06,.11,2.14,.02,3.33,.02Zm-12.1,12.88c-.01-2.13-.08-4.39-2.5-5.54-2.51-1.2-6.38-.29-7.82,2.06-2.18,3.58-2.97,7.57-2.44,11.74,.23,1.81,1.4,2.76,3.25,3.09,3.05,.55,5.52-.52,7.22-3.1,1.63-2.47,1.99-5.28,2.28-8.25Z"></path>
  <path class="cls-4" d="M199.01,45.21c-1.35,7.41-2.66,14.58-3.96,21.76-.07,.37-.14,.74-.18,1.11-.17,1.88,.18,2.33,2.1,2.3,1.08-.02,1.3,.34,1.09,1.3-.26,1.2-.48,2.42-.65,3.64-.09,.63-.42,.94-.98,1.13-2.03,.67-4.09,.95-6.21,.61-2.55-.42-4.15-1.88-4.64-4.5-.79,.02-1.03,.65-1.43,1.01-3.82,3.53-8.27,4.44-13.18,3-4.14-1.21-6.33-4.31-6.73-8.39-.66-6.69,.5-13.08,4.59-18.63,3.3-4.48,9.7-6.26,14.96-4.39,1.79,.63,3.23,1.69,4.26,3.27,.44,.67,.88,.68,1.11-.02,1.07-3.33,3.65-3.5,6.51-3.22,1.06,.11,2.14,.02,3.33,.02Zm-12.1,12.88c-.01-2.13-.08-4.39-2.5-5.54-2.51-1.2-6.38-.29-7.82,2.06-2.18,3.58-2.97,7.57-2.44,11.74,.23,1.81,1.4,2.76,3.25,3.09,3.05,.55,5.52-.52,7.22-3.1,1.63-2.47,1.99-5.28,2.28-8.25Z"></path>
  <path d="M64.02,77.2c1.82-10.22,3.63-20.29,5.39-30.37,.14-.77,.43-.94,1.14-.93,1.94,.04,3.88,.05,5.82,0,.89-.03,1.25,.21,1.19,1.15-.08,1.17-.02,2.34-.02,3.99,.79-1.01,1.31-1.7,1.85-2.37,2.26-2.77,5.17-3.9,8.73-3.4,1.15,.16,1.72,.55,1.42,1.87-.44,1.93-.75,3.9-1.04,5.86-.15,1.04-.59,1.52-1.66,1.3-.1-.02-.21,0-.32,0-6.51,0-9.15,2.27-10.22,8.67-.73,4.39-1.54,8.77-2.29,13.15-.11,.63-.17,1.11-1.03,1.1-2.96-.04-5.91-.02-8.97-.02Z"></path>
  <path class="cls-5" d="M202.47,70.87c-.1-.04-.2-.09-.3-.13,.07-.04,.13-.08,.2-.12,.02,.09,.05,.19,.07,.28,0,0,.03-.03,.03-.03Z"></path>
  <polygon class="cls-4" points="266.86 43.39 243.36 43.39 242.05 50.76 255.04 50.76 238.59 70.48 237.41 76.82 260.91 76.82 262.22 69.45 249.15 69.45 265.69 49.73 266.86 43.39"></polygon>
  <path class="cls-2" d="M206.37,84.43c-3.38,0-6.68-.34-9.81-1-4.09-.86-7.84-2.35-11.15-4.42-.04-.03-.09-.05-.13-.07-.18-.1-.43-.23-.6-.5-.03-.04-.06-.08-.08-.12-.1-.22-.05-.48,.13-.63l.02-.02c.1-.08,.22-.12,.34-.12,.01,0,.03,0,.04,0,.07,0,.14-.01,.21-.01,.5,0,.92,.18,1.29,.34,.17,.07,.33,.14,.48,.19,5.51,1.69,11.4,2.55,17.53,2.55,1.42,0,2.88-.05,4.33-.14,10.16-.63,20.12-3.39,30.45-8.45,.32-.16,.71-.35,.81-.45,0-.11-.11-.43-.22-.73-.06-.16-.03-.34,.07-.48,.1-.14,.26-.23,.43-.23h6.25c.21,0,.4,.12,.48,.31s.05,.41-.08,.57l-4.06,4.68c-.1,.12-.25,.18-.4,.18-.04,0-.08,0-.12-.01-.19-.04-.34-.19-.39-.38-.06-.23-.12-.33-.15-.37-.06,0-.18,.05-.44,.19-7.39,3.98-15.79,6.7-25.69,8.31-3.3,.54-6.51,.81-9.55,.81Z"></path>
  <g>
    <path class="cls-1" d="M248.09,74.3c-.05-.05-.08-.11-.08-.18,0-.1,.04-.18,.11-.25,.07-.07,.17-.1,.28-.1,.08,0,.15,.02,.2,.07,.05,.05,.07,.11,.07,.18,0,.1-.04,.18-.11,.25-.07,.07-.16,.1-.27,.1-.09,0-.16-.02-.21-.07Z"></path>
    <path class="cls-1" d="M249.32,72.6c.13-.18,.29-.31,.48-.41,.19-.1,.4-.15,.62-.15,.27,0,.49,.07,.66,.21,.17,.14,.26,.34,.28,.58h-.61c-.03-.09-.08-.16-.15-.21-.07-.05-.17-.07-.27-.07-.17,0-.32,.06-.44,.18-.13,.12-.21,.28-.24,.47-.01,.06-.02,.11-.02,.16,0,.15,.04,.27,.13,.36,.08,.09,.2,.13,.35,.13,.11,0,.2-.02,.3-.07,.09-.05,.17-.12,.23-.21h.61c-.11,.25-.27,.44-.49,.58-.22,.14-.46,.21-.73,.21-.19,0-.36-.04-.51-.11s-.26-.18-.33-.32c-.08-.14-.12-.3-.12-.48,0-.08,0-.16,.02-.24,.04-.22,.12-.43,.25-.6Z"></path>
    <path class="cls-1" d="M252.01,74.24c-.15-.08-.26-.19-.34-.34s-.12-.31-.12-.5c0-.27,.06-.5,.17-.71,.11-.21,.27-.37,.48-.49s.44-.18,.7-.18c.19,0,.37,.04,.51,.12,.15,.08,.26,.19,.34,.33,.08,.14,.12,.31,.12,.49,0,.27-.06,.5-.17,.71-.11,.21-.27,.38-.48,.49-.21,.12-.44,.18-.7,.18-.19,0-.36-.04-.51-.12Zm.97-.5c.11-.07,.19-.17,.25-.3,.06-.12,.09-.26,.09-.4,0-.16-.04-.28-.13-.37s-.21-.13-.36-.13c-.14,0-.27,.04-.38,.11s-.19,.17-.25,.29c-.06,.12-.09,.26-.09,.4,0,.16,.04,.28,.13,.37,.09,.09,.21,.13,.37,.13,.14,0,.27-.04,.38-.11Z"></path>
    <path class="cls-1" d="M256.96,72.06l-.4,2.28h-.55l.24-1.37-.75,1.37h-.45l-.27-1.37-.24,1.37h-.55l.4-2.28h.66l.36,1.58,.91-1.58h.65Z"></path>
  </g>
  <path class="cls-3" d="M59.74,62.45c-1.79,3.64-4.4,6.65-7.53,9.24-.89,.74-1.65,.93-2.47-.03-1.86-.78-3.71-1.24-5.71-.38-1.87,.8-3.28,2.1-3.63,4.06-.34,1.9-1.27,2.65-3.08,2.56-2.4,.4-4.81,.39-7.22,.34-.75-.02-1.39-.15-1.64-1-.76-2.62-2.63-4.04-5.19-4.68-1.87-.16-3.58,.23-5.04,1.45-.64,.53-1.22,.55-1.9,.1-1.66-1.08-3.31-2.16-4.69-3.6-4.02-3.53-6.54-7.99-8-13.07-2.55-8.87-1.95-17.46,2.52-25.64,1.37-2.52,3.14-4.77,5.4-6.59,.52-.67,1.19-1.18,1.92-1.6,.26,.65,.41,1.32,.31,2.03-.24,.31-.51,.6-.71,.94-.89,1.51-.69,2.92,.54,4.02,1.45,1.3,2.8,1.41,4.29,.36,1.12-.78,1.58-1.88,1.39-3.19-.19-1.36-.98-2.31-2.34-2.71-.19-1.3-.17-2.6,0-3.89,2.15-.93,4.24-2.02,6.56-2.52,3.98-1.34,8.09-1.28,12.21-1.17,.37,.07,.75,.2,1.13,.18,2.46-.09,4.78,.56,7.1,1.27,.66,1.43,.83,2.95,.76,4.51-1.33,1.23-1.66,2.42-1.04,3.82,.67,1.53,1.87,2.15,3.96,2.06,1.29-.66,2.41-1.47,2.45-3.1,.05-1.58-.8-2.61-2.13-3.32-.12-.67-.42-1.34-.11-2.04,2.88,1.09,5.05,3.13,7.05,5.36,1.44,1.61,2.58,3.45,3.51,5.4,1.02,2.14,.27,3.45-2.07,3.54-2.9,.12-5.77,.59-8.68,.54-2.15,.5-4.03,.47-5.63-1.52-1.55-1.93-3.97-2.6-6.28-3.28-2.66-.15-5.31-.24-7.92,.52-1.41,.4-2.65,1.12-3.97,1.7-10.05,6.4-8.17,23.9-.29,29.35,4,2.68,8.44,3.29,13.12,2.75,2.84-.67,5.54-1.61,7.76-3.66,1.89-1.75,3.06-3.92,3.96-6.26,.57-1.48,.39-1.65-1.19-1.52-2.23,.18-4.46,.49-6.7,.43-2.76,.37-5.53,.49-8.3,.61-1.19,.05-1.84-.61-1.93-1.73-.19-2.37-.31-4.74-.43-7.11-.06-1.16,.65-1.71,1.7-1.78,2.99-.19,5.97-.59,8.97-.58,3.25-.43,6.52-.57,9.79-.74,2.8-.34,5.61-.52,8.42-.61,1.92-.07,2.57,.49,2.73,2.38,.27,3.06,.46,6.13,.74,9.19,.28,3.19-1.13,5.92-2.46,8.62Z"></path>
  <path d="M46.47,72.43c2.62,.02,4.75,2.2,4.72,4.82-.03,2.61-2.1,4.67-4.7,4.68-2.68,.01-4.8-2.09-4.79-4.73,.01-2.65,2.16-4.79,4.77-4.77Zm-.95,2.37q1.15,1.65,2.77,.56c-.79-.63-1.61-1.05-2.77-.56Zm-1,4.2c.43,.27,.64,.42,.86,.55,.53,.3,1.15,.48,1.6,.06,.4-.37-.24-.73-.34-1.12-.07-.27,.04-.61-.3-.85-.57,.39-.95,1.01-1.82,1.37Zm4.35-2.8c-.68,.5-1.2,.98-1.99,1.06,.52,.6,.99,1.14,1.46,1.69,.73-.77,.77-1.62,.53-2.75Zm-4.85,1.96c.56-.64,1.26-.66,1.88-1.13-.73-.32-.68-1.19-1.28-1.57-.82,.66-.83,1.5-.6,2.69Z"></path>
  <path d="M19.87,83.06c-3.79-2.51-2.47-6.95,.12-8.27,2.14-1.09,4.75-.55,6.16,1.36,1.38,1.88,1.16,4.43-.56,6.14-.28,.28-.61,.51-.91,.76-.53,.63-1.42,.44-2.03,.89-.28,0-.56,0-.84,0-.59-.42-1.43-.3-1.94-.89Zm1.97-4.14c-.64-.48-.91-1.17-1.32-1.84-.78,.83-1.1,1.67-.57,2.76,.53-.52,1.17-.69,1.88-.92Zm1.21,2.47c-.32-.67-.61-1.29-.89-1.87-.55,.43-1.1,.86-1.66,1.3,.75,.61,1.53,1.01,2.55,.57Zm1.15-4.17c-.74-.74-1.49-.95-2.35-.82-.31,.05-.47,.13-.33,.49,.34,.92,1.05,1.21,1.89,.74,.22-.12,.45-.23,.8-.41Zm0,3.49c.71-.84,.82-1.69,.5-2.8-.63,.57-1.23,.98-1.92,1.23,.46,.51,.9,.99,1.42,1.57Z"></path>
  <path d="M19.87,83.06c.52,.59,1.35,.47,1.94,.89-2.21,.26-4.38-.18-6.86-.21,1.76-.76,3.4-.23,4.91-.68Z"></path>
  <path d="M22.66,83.94c.61-.45,1.5-.27,2.03-.89,.81,.48,1.81,0,2.98,.7-1.9,.06-3.44,.37-5.01,.19Z"></path>
</svg>
